<?xml version="1.0" encoding="UTF-8" standalone="no"?>
<!-- Created with Inkscape (http://www.inkscape.org/) -->

<svg
   width="512.0px"
   height="512.0px"
   viewBox="0 0 512.0 512.0"
   version="1.1"
   id="SVGRoot"
   xmlns:xlink="http://www.w3.org/1999/xlink"
   xmlns="http://www.w3.org/2000/svg"
   xmlns:svg="http://www.w3.org/2000/svg">
  <defs
     id="defs824">
    <linearGradient
       id="linearGradient1958">
      <stop
         style="stop-color:#000000;stop-opacity:1;"
         offset="0"
         id="stop1954" />
      <stop
         style="stop-color:#515151;stop-opacity:0.99596769"
         offset="1"
         id="stop1956" />
    </linearGradient>
    <linearGradient
       id="linearGradient1703">
      <stop
         style="stop-color:#f3d400;stop-opacity:1;"
         offset="0"
         id="stop1699" />
      <stop
         style="stop-color:#fff29c;stop-opacity:0.9921568"
         offset="1"
         id="stop1701" />
    </linearGradient>
    <filter
       id="mask-powermask-path-effect1527_inverse"
       style="color-interpolation-filters:sRGB"
       height="100"
       width="100"
       x="-50"
       y="-50">
      <feColorMatrix
         id="mask-powermask-path-effect1527_primitive1"
         values="1"
         type="saturate"
         result="fbSourceGraphic" />
      <feColorMatrix
         id="mask-powermask-path-effect1527_primitive2"
         values="-1 0 0 0 1 0 -1 0 0 1 0 0 -1 0 1 0 0 0 1 0 "
         in="fbSourceGraphic" />
    </filter>
    <linearGradient
       xlink:href="#linearGradient1703"
       id="linearGradient1705"
       x1="213.70549"
       y1="165.16382"
       x2="129.27856"
       y2="42.223835"
       gradientUnits="userSpaceOnUse" />
    <linearGradient
       xlink:href="#linearGradient1958"
       id="linearGradient1960"
       x1="452.21915"
       y1="531.10016"
       x2="-8.4469652"
       y2="-116.32362"
       gradientUnits="userSpaceOnUse" />
  </defs>
  <g
     id="layer1">
    <rect
       style="fill:#545454;fill-opacity:1;stroke-width:0.845641"
       id="rect2107"
       width="512.02393"
       height="512.42267"
       x="0.24226052"
       y="-0.1004018" />
    <g
       id="g2046"
       transform="matrix(1.1808863,0,0,1.1808863,-46.306899,-46.306899)">
      <path
         style="fill:url(#linearGradient1705);fill-opacity:1;stroke:none;stroke-width:1.8808"
         d="m 161.80971,98.251022 c 0,0 -2.78469,7.355928 -5.69911,14.748618 -6.06786,3.29277 -16.8732,11.29061 -21.71259,17.05047 -8.19627,0.0549 -15.93347,-0.64892 -15.93347,-0.64892 0,0 0.47134,9.34819 0.56426,14.94115 -2.68039,4.33575 -5.20302,8.92576 -6.7732,13.96911 -5.32772,0.94741 -11.56882,1.95433 -11.77307,1.98643 12.91672,6.97875 24.00159,15.04373 38.66889,15.22845 -0.27827,-32.89881 77.27154,-75.02406 108.97726,-63.66621 7.16625,-11.37646 3.56531,-24.774332 0.60994,-37.358759 -0.3666,0.4097 -4.89583,5.521652 -7.71952,8.993246 -3.80153,-0.899071 -11.4779,-1.214532 -15.63453,-1.10407 -6.18846,-3.049774 -14.84552,-6.997073 -14.84552,-6.997073 0,0 -2.55078,6.145045 -5.66684,13.04361 -8.57686,3.185229 -18.95581,7.030747 -26.47987,11.958206 -8.11826,-0.854735 -16.58267,-2.144303 -16.58267,-2.144303 z"
         id="path3054" />
      <path
         id="path939"
         style="fill:url(#linearGradient1960);fill-opacity:1"
         d="M 181.63086,40.433594 169.89258,214.06641 40.433594,330.36914 214.06641,342.10742 330.36914,471.56641 342.10742,297.93359 471.56641,181.63086 297.93359,169.89258 Z M 256,205.00977 A 50.990479,50.990479 0 0 1 306.99023,256 50.990479,50.990479 0 0 1 256,306.99023 50.990479,50.990479 0 0 1 205.00977,256 50.990479,50.990479 0 0 1 256,205.00977 Z" />
      <path
         style="fill:#ffe953;fill-opacity:1;stroke:none;stroke-width:1.8808"
         d="m 121.80138,178.70024 c 0,0 20.38083,12.80375 34.54003,21.70236 43.34773,14.3177 104.57979,-18.599 109.76069,-63.16906 -2.78587,-16.18261 -7.04817,-38.722619 -7.04817,-38.722619 -0.30815,12.868689 -6.7936,25.405869 -11.12826,32.649179 -3.08552,5.1394 -13.06892,12.97481 -13.06892,12.97481 l -38.516,3.28469 -19.60083,30.18505 c 0,0 -11.97661,4.74485 -18.3693,5.52933 -13.32608,0.98793 -24.02355,-0.78453 -36.56924,-4.43374 z"
         id="path3051" />
      <path
         style="fill:#e6c900;fill-opacity:1;stroke:none;stroke-width:1.82071"
         d="m 127.84631,182.52299 c 0,0 19.70035,12.41313 33.38679,21.04026 41.90041,13.88089 101.08801,-18.03158 106.09593,-61.24188 -2.69285,-15.6889 -6.81284,-37.54125 -6.81284,-37.54125 -0.29787,12.47609 -6.56678,24.63078 -10.7567,31.6531 -2.98251,4.98261 -12.63257,12.57898 -12.63257,12.57898 l -37.23001,3.18447 -18.94638,29.26416 c 0,0 -11.57673,4.60009 -17.75598,5.36064 -12.88114,0.95779 -23.22143,-0.7606 -35.34824,-4.29848 z"
         id="path1825" />
    </g>
  </g>
</svg>
